<svg width="1200" height="900" viewBox="0 0 1200 900" fill="none" xmlns="http://www.w3.org/2000/svg">
  <defs>
    <linearGradient id="bg" x1="152" y1="116" x2="1032" y2="780" gradientUnits="userSpaceOnUse">
      <stop stop-color="#F8F1E7"/>
      <stop offset="1" stop-color="#E5D4BE"/>
    </linearGradient>
    <linearGradient id="shell" x1="220" y1="170" x2="952" y2="746" gradientUnits="userSpaceOnUse">
      <stop stop-color="#FFFDF9"/>
      <stop offset="1" stop-color="#F4E7D8"/>
    </linearGradient>
    <linearGradient id="panel" x1="330" y1="280" x2="865" y2="718" gradientUnits="userSpaceOnUse">
      <stop stop-color="#FFFFFF"/>
      <stop offset="1" stop-color="#F9F1E7"/>
    </linearGradient>
    <linearGradient id="hero" x1="0" y1="0" x2="1" y2="1">
      <stop stop-color="#5C7460"/>
      <stop offset="1" stop-color="#D3A168"/>
    </linearGradient>
    <filter id="shadow" x="156" y="126" width="888" height="668" filterUnits="userSpaceOnUse" color-interpolation-filters="sRGB">
      <feFlood flood-opacity="0" result="BackgroundImageFix"/>
      <feColorMatrix in="SourceAlpha" type="matrix" values="0 0 0 0 0 0 0 0 0 0 0 0 0 0 0 0 0 0 127 0" result="hardAlpha"/>
      <feOffset dy="18"/>
      <feGaussianBlur stdDeviation="28"/>
      <feColorMatrix type="matrix" values="0 0 0 0 0.152941 0 0 0 0 0.121569 0 0 0 0 0.0784314 0 0 0 0.16 0"/>
      <feBlend mode="normal" in2="BackgroundImageFix" result="effect1_dropShadow_1_1"/>
      <feBlend mode="normal" in="SourceGraphic" in2="effect1_dropShadow_1_1" result="shape"/>
    </filter>
  </defs>
  <rect width="1200" height="900" rx="48" fill="url(#bg)"/>
  <circle cx="206" cy="118" r="100" fill="#FFF7EC" fill-opacity="0.7"/>
  <circle cx="1018" cy="760" r="126" fill="#FFF9F1" fill-opacity="0.58"/>
  <g filter="url(#shadow)">
    <rect x="212" y="164" width="776" height="556" rx="34" fill="url(#shell)"/>
    <rect x="212" y="164" width="776" height="74" rx="34" fill="#F3E6D7"/>
    <circle cx="256" cy="201" r="7" fill="#D89E85"/>
    <circle cx="281" cy="201" r="7" fill="#D3A168"/>
    <circle cx="306" cy="201" r="7" fill="#5C7460"/>
    <rect x="344" y="189" width="204" height="24" rx="12" fill="#E9DBCC"/>
    <rect x="570" y="189" width="118" height="24" rx="12" fill="#E9DBCC"/>
    <rect x="212" y="238" width="172" height="482" fill="#213128"/>
    <rect x="410" y="268" width="548" height="420" rx="28" fill="url(#panel)"/>
    <rect x="238" y="284" width="120" height="44" rx="20" fill="rgba(255,250,243,0.12)"/>
    <text x="262" y="312" fill="#FFF8EF" font-family="Avenir Next, Segoe UI, Arial, sans-serif" font-size="21" font-weight="700">Revya</text>
    <rect x="238" y="360" width="120" height="14" rx="7" fill="#5B7260"/>
    <rect x="238" y="392" width="98" height="12" rx="6" fill="#44584B"/>
    <rect x="238" y="432" width="108" height="12" rx="6" fill="#44584B"/>
    <rect x="238" y="472" width="84" height="12" rx="6" fill="#44584B"/>
    <rect x="238" y="512" width="110" height="12" rx="6" fill="#44584B"/>
    <rect x="238" y="582" width="116" height="72" rx="22" fill="rgba(255,250,243,0.1)"/>
    <text x="256" y="612" fill="#FFF8EF" font-family="Avenir Next, Segoe UI, Arial, sans-serif" font-size="14" font-weight="700" letter-spacing="1.2">NEXT REFILL</text>
    <text x="256" y="646" fill="#FFF8EF" font-family="Avenir Next, Segoe UI, Arial, sans-serif" font-size="26" font-weight="800">Apr 18</text>
    <rect x="440" y="298" width="134" height="16" rx="8" fill="#CDB69B"/>
    <text x="440" y="350" fill="#17201A" font-family="Avenir Next, Segoe UI, Arial, sans-serif" font-size="40" font-weight="800">Your care plan</text>
    <text x="440" y="386" fill="#55605B" font-family="Avenir Next, Segoe UI, Arial, sans-serif" font-size="21">Refills, appointments, progress, and support in one portal.</text>
    <rect x="440" y="418" width="184" height="48" rx="24" fill="url(#hero)"/>
    <text x="477" y="449" fill="#FFF8EF" font-family="Avenir Next, Segoe UI, Arial, sans-serif" font-size="18" font-weight="700">Review refill</text>
    <rect x="648" y="418" width="180" height="48" rx="24" fill="#F2E5D7"/>
    <text x="689" y="449" fill="#17201A" font-family="Avenir Next, Segoe UI, Arial, sans-serif" font-size="18" font-weight="700">Book visit</text>
    <rect x="440" y="500" width="230" height="160" rx="26" fill="#FCF7F0" stroke="#E7D7C5"/>
    <text x="468" y="536" fill="#17201A" font-family="Avenir Next, Segoe UI, Arial, sans-serif" font-size="16" font-weight="700" letter-spacing="1">PROGRESS</text>
    <path d="M474 626C502 590 520 584 548 566C575 550 598 538 628 520" stroke="url(#hero)" stroke-width="10" stroke-linecap="round"/>
    <circle cx="474" cy="626" r="7" fill="#17201A"/>
    <circle cx="548" cy="566" r="7" fill="#17201A"/>
    <circle cx="628" cy="520" r="7" fill="#17201A"/>
    <text x="468" y="586" fill="#55605B" font-family="Avenir Next, Segoe UI, Arial, sans-serif" font-size="15">12 lbs lost</text>
    <rect x="694" y="500" width="236" height="160" rx="26" fill="#FCF7F0" stroke="#E7D7C5"/>
    <text x="722" y="536" fill="#17201A" font-family="Avenir Next, Segoe UI, Arial, sans-serif" font-size="16" font-weight="700" letter-spacing="1">NEXT STEPS</text>
    <rect x="722" y="564" width="180" height="18" rx="9" fill="#EAE0D4"/>
    <rect x="722" y="604" width="156" height="18" rx="9" fill="#EAE0D4"/>
    <rect x="722" y="644" width="194" height="18" rx="9" fill="#EAE0D4"/>
    <circle cx="910" cy="576" r="18" fill="#DCE5D8"/>
    <circle cx="910" cy="616" r="18" fill="#F1E3D1"/>
    <circle cx="910" cy="656" r="18" fill="#E8D0C4"/>
  </g>
</svg>
